<svg xmlns="http://www.w3.org/2000/svg" width="92" height="70" viewBox="0 0 92 70">
    <path fill="#015CAB" fill-rule="evenodd" d="M0 45.174c0-7.19 2.482-14.837 7.445-22.943C12.41 14.125 21.374 6.715 34.34 0l2.43 4.578c-6.482 4.613-11.277 8.48-14.383 11.6-5.47 5.63-8.205 11.022-8.205 16.177 0 1.763.506 2.916 1.519 3.459 1.013.61 1.89.916 2.634.916 2.566-.34 4.254-.51 5.065-.51 4.322 0 7.867 1.578 10.636 4.732 2.769 3.154 4.153 6.97 4.153 11.446 0 5.02-1.52 9.208-4.558 12.566C30.59 68.32 26.405 70 21.07 70c-6.28 0-11.362-2.255-15.245-6.766C1.942 58.724 0 52.704 0 45.174zm53.811 0c0-7.597 2.634-15.43 7.901-23.502C66.98 13.6 75.792 6.376 88.151 0l2.43 4.578c-6.077 4.274-10.737 8.038-13.978 11.294-5.74 5.766-8.61 11.124-8.61 16.076 0 1.424.371 2.577 1.114 3.459.743.882 1.756 1.323 3.039 1.323 2.566-.34 4.254-.51 5.065-.51 4.254 0 7.783 1.561 10.585 4.681C90.6 44.021 92 47.854 92 52.398c0 5.291-1.553 9.547-4.66 12.77C84.234 68.388 80.013 70 74.678 70c-6.078 0-11.075-2.255-14.992-6.766-3.917-4.51-5.875-10.53-5.875-18.06z" opacity=".121"/>
</svg>